<svg width="126" height="27" viewBox="0 0 126 27" fill="none" xmlns="http://www.w3.org/2000/svg">
<path d="M21.9003 0H5.33474C2.71205 0 0.585938 2.12611 0.585938 4.74881V21.3144C0.585938 23.9371 2.71205 26.0632 5.33474 26.0632H21.9003C24.523 26.0632 26.6492 23.9371 26.6492 21.3144V4.74881C26.6492 2.12611 24.523 0 21.9003 0Z" fill="#FFE681"/>
<path d="M13.0902 7.49321C12.2998 7.49321 11.659 8.1372 11.659 8.9316V14.8366C11.659 15.4219 12.1311 15.8964 12.7136 15.8964H16.7059C17.4964 15.8964 18.1371 15.2525 18.1371 14.4581V14.3066C18.1371 13.5122 17.4964 12.8682 16.7059 12.8682H14.6721V8.9316C14.6721 8.1372 14.0313 7.49321 13.2409 7.49321H13.0902Z" fill="#373741"/>
<path d="M17.9545 21.9997C18.6892 21.6396 18.8567 20.7022 18.3938 20.0251C17.9309 19.348 17.0123 19.1933 16.2566 19.5065C15.2769 19.9126 14.2122 20.093 13.1417 20.0257C11.5753 19.9273 10.0869 19.3042 8.91416 18.256C7.74143 17.2077 6.952 15.7948 6.67192 14.2428C6.39184 12.6908 6.63727 11.0893 7.36901 9.69391C8.10076 8.29854 9.27661 7.18982 10.7088 6.5448C12.141 5.89978 13.747 5.75565 15.2703 6.13543C16.7935 6.51521 18.1462 7.39701 19.1124 8.64C20.0786 9.88299 20.625 11.4442 20.6229 13.0215L20.6229 21.1224C20.6229 21.9168 21.2637 22.5607 22.0542 22.5607H22.1295C22.9199 22.5607 23.5607 21.9168 23.5607 21.1224V12.9462C23.5525 10.7216 22.8085 8.56234 21.4452 6.80849C20.0717 5.04139 18.1486 3.78779 15.983 3.24787C13.8175 2.70795 11.5344 2.91285 9.49826 3.82985C7.46216 4.74685 5.7905 6.32306 4.75022 8.30679C3.70993 10.2905 3.36102 12.5674 3.75919 14.7738C4.15737 16.9801 5.27966 18.9888 6.94687 20.479C8.61408 21.9692 10.7301 22.855 12.9569 22.995C14.6887 23.1038 16.4098 22.7567 17.9545 21.9997Z" fill="#373741"/>
<path d="M33.3441 20.9665C32.8201 20.9665 32.3243 20.8957 31.857 20.7541C31.3896 20.6124 30.9718 20.4071 30.6035 20.138C30.2353 19.8547 29.9379 19.5077 29.7112 19.097C29.4988 18.6721 29.3926 18.1764 29.3926 17.6099C29.3926 16.8875 29.5342 16.2998 29.8175 15.8465C30.1007 15.3792 30.4831 15.0251 30.9647 14.7843C31.4604 14.5435 32.0198 14.3807 32.643 14.2957C33.2662 14.1965 33.9177 14.147 34.5975 14.147H36.7857C36.7857 13.6513 36.7078 13.2264 36.552 12.8723C36.3962 12.504 36.1484 12.2137 35.8085 12.0013C35.4827 11.7888 35.0578 11.6826 34.5338 11.6826C34.1939 11.6826 33.8752 11.7251 33.5778 11.8101C33.2945 11.8809 33.0467 12.0013 32.8342 12.1712C32.6359 12.327 32.4943 12.5324 32.4093 12.7873H29.7537C29.8529 12.2066 30.0512 11.7109 30.3486 11.3002C30.6602 10.8753 31.0355 10.5283 31.4746 10.2592C31.9278 9.9901 32.4235 9.79181 32.9617 9.66434C33.4999 9.52271 34.0452 9.4519 34.5975 9.4519C36.2263 9.4519 37.4089 9.91928 38.1454 10.854C38.896 11.7888 39.2714 13.0989 39.2714 14.7843V20.8178H36.9769L36.9132 19.3732C36.5874 19.8547 36.198 20.2088 35.7447 20.4354C35.2915 20.662 34.8525 20.8036 34.4276 20.8603C34.0027 20.9311 33.6415 20.9665 33.3441 20.9665ZM33.854 18.8633C34.4205 18.8633 34.9233 18.7571 35.3623 18.5446C35.8014 18.3322 36.1484 18.0347 36.4033 17.6523C36.6724 17.2699 36.807 16.8309 36.807 16.3352V15.974H34.7675C34.4276 15.974 34.0877 15.9882 33.7477 16.0165C33.422 16.0307 33.1246 16.0873 32.8555 16.1865C32.5864 16.2714 32.3668 16.406 32.1969 16.5901C32.0411 16.7742 31.9632 17.0362 31.9632 17.3762C31.9632 17.7161 32.0482 17.9923 32.2181 18.2047C32.4022 18.4172 32.6359 18.58 32.9192 18.6933C33.2166 18.8066 33.5282 18.8633 33.854 18.8633Z" fill="#373741"/>
<path d="M46.6959 20.9665C45.0813 20.9665 43.842 20.5487 42.978 19.7131C42.1283 18.8775 41.7034 17.6028 41.7034 15.889V9.62186H44.2952V15.7191C44.2952 16.3139 44.3731 16.8309 44.5289 17.2699C44.6989 17.709 44.9609 18.0489 45.315 18.2897C45.6832 18.5163 46.1435 18.6296 46.6959 18.6296C47.2907 18.6296 47.7581 18.5092 48.098 18.2684C48.4521 18.0135 48.6999 17.6665 48.8416 17.2274C48.9832 16.7884 49.054 16.2856 49.054 15.7191V9.62186H51.6459V15.889C51.6459 17.6453 51.2068 18.9341 50.3287 19.7556C49.4648 20.5629 48.2538 20.9665 46.6959 20.9665Z" fill="#373741"/>
<path d="M54.1109 20.8178V9.62186H56.4691L56.6178 11.0877C56.9011 10.6628 57.2197 10.3371 57.5738 10.1105C57.942 9.86971 58.3315 9.69975 58.7423 9.60061C59.1672 9.50147 59.592 9.4519 60.0169 9.4519C60.1727 9.4519 60.3144 9.4519 60.4418 9.4519C60.5835 9.4519 60.6968 9.45898 60.7817 9.47314V11.9375H60.1019C59.3654 11.9375 58.7423 12.0792 58.2324 12.3624C57.7225 12.6457 57.3401 13.0493 57.0852 13.5734C56.8302 14.0974 56.7028 14.7418 56.7028 15.5066V20.8178H54.1109Z" fill="#373741"/>
<path d="M67.2559 20.9665C65.6413 20.9665 64.402 20.5487 63.5381 19.7131C62.6883 18.8775 62.2634 17.6028 62.2634 15.889V9.62186H64.8552V15.7191C64.8552 16.3139 64.9331 16.8309 65.0889 17.2699C65.2589 17.709 65.5209 18.0489 65.875 18.2897C66.2432 18.5163 66.7035 18.6296 67.2559 18.6296C67.8507 18.6296 68.3181 18.5092 68.658 18.2684C69.0121 18.0135 69.26 17.6665 69.4016 17.2274C69.5432 16.7884 69.6141 16.2856 69.6141 15.7191V9.62186H72.2059V15.889C72.2059 17.6453 71.7668 18.9341 70.8887 19.7556C70.0248 20.5629 68.8138 20.9665 67.2559 20.9665Z" fill="#373741"/>
<path d="M74.6709 20.8178V9.62186H77.0504L77.2203 10.8965C77.5036 10.5141 77.8081 10.2238 78.1338 10.0255C78.4737 9.81306 78.8207 9.66435 79.1748 9.57937C79.5431 9.49439 79.8901 9.4519 80.2158 9.4519C80.924 9.4519 81.5259 9.59353 82.0216 9.87679C82.5315 10.1601 82.928 10.5849 83.2113 11.1515C83.4946 10.7549 83.8132 10.4362 84.1673 10.1955C84.5214 9.94053 84.8967 9.75641 85.2933 9.6431C85.6899 9.51563 86.1077 9.4519 86.5467 9.4519C87.4107 9.4519 88.1047 9.63602 88.6287 10.0043C89.1527 10.3583 89.5351 10.854 89.7759 11.4914C90.0167 12.1146 90.1371 12.8298 90.1371 13.6371V20.8178H87.5452V14.4656C87.5452 14.1824 87.5311 13.885 87.5027 13.5734C87.4744 13.2618 87.3965 12.9714 87.269 12.7023C87.1557 12.4332 86.9858 12.2137 86.7592 12.0437C86.5326 11.8738 86.2139 11.7888 85.8032 11.7888C85.3924 11.7888 85.0525 11.8809 84.7834 12.065C84.5285 12.235 84.316 12.4686 84.1461 12.7661C83.9903 13.0493 83.877 13.368 83.8062 13.7221C83.7495 14.062 83.7212 14.4019 83.7212 14.7418V20.8178H81.1293V14.4444C81.1293 14.1753 81.1081 13.892 81.0656 13.5946C81.0373 13.283 80.9665 12.9927 80.8531 12.7236C80.754 12.4403 80.584 12.2137 80.3433 12.0437C80.1167 11.8738 79.798 11.7888 79.3873 11.7888C78.7924 11.7888 78.3392 11.9517 78.0276 12.2774C77.7302 12.6032 77.5248 12.9998 77.4115 13.4671C77.3124 13.9345 77.2628 14.3807 77.2628 14.8056V20.8178H74.6709Z" fill="#373741"/>
<path d="M92.5339 20.8178V5.79781H95.1257V20.8178H92.5339Z" fill="#FFE681"/>
<path d="M97.6376 20.8178V9.62186H100.229V20.8178H97.6376ZM98.9335 8.32593C98.4378 8.32593 98.0413 8.17722 97.7438 7.87979C97.4464 7.58237 97.2977 7.19288 97.2977 6.71134C97.2977 6.24395 97.4535 5.86155 97.7651 5.56412C98.0767 5.25253 98.4661 5.09674 98.9335 5.09674C99.3867 5.09674 99.7762 5.24545 100.102 5.54288C100.428 5.8403 100.591 6.22979 100.591 6.71134C100.591 7.19288 100.435 7.58237 100.123 7.87979C99.8116 8.17722 99.4151 8.32593 98.9335 8.32593Z" fill="#FFE681"/>
<path d="M102.741 20.8178V9.62186H105.163L105.312 11.0452C105.609 10.6487 105.956 10.3371 106.353 10.1105C106.749 9.88387 107.167 9.721 107.606 9.62186C108.045 9.50855 108.456 9.4519 108.839 9.4519C109.901 9.4519 110.736 9.68559 111.345 10.153C111.969 10.6204 112.408 11.2435 112.663 12.0225C112.918 12.8015 113.045 13.6725 113.045 14.6356V20.8178H110.453V15.0605C110.453 14.6498 110.425 14.2532 110.368 13.8708C110.311 13.4742 110.198 13.1201 110.028 12.8086C109.872 12.497 109.646 12.2491 109.348 12.065C109.051 11.8809 108.654 11.7888 108.159 11.7888C107.55 11.7888 107.033 11.9517 106.608 12.2774C106.183 12.6032 105.864 13.0422 105.652 13.5946C105.439 14.1328 105.333 14.7489 105.333 15.4429V20.8178H102.741Z" fill="#FFE681"/>
<path d="M120.494 20.9665C119.332 20.9665 118.341 20.7257 117.519 20.2442C116.712 19.7626 116.096 19.097 115.671 18.2472C115.26 17.3832 115.055 16.3847 115.055 15.2517C115.055 14.1186 115.267 13.1201 115.692 12.2562C116.131 11.3781 116.754 10.6912 117.562 10.1955C118.383 9.69975 119.368 9.4519 120.515 9.4519C121.365 9.4519 122.108 9.60769 122.745 9.91928C123.383 10.2167 123.914 10.6274 124.339 11.1515C124.778 11.6755 125.104 12.2704 125.316 12.936C125.529 13.6017 125.628 14.3028 125.614 15.0392C125.599 15.2092 125.585 15.3792 125.571 15.5491C125.557 15.7049 125.536 15.8749 125.507 16.059H117.647C117.689 16.5547 117.817 17.0079 118.029 17.4187C118.256 17.8294 118.567 18.1551 118.964 18.3959C119.375 18.6367 119.885 18.7571 120.494 18.7571C120.848 18.7571 121.188 18.7146 121.513 18.6296C121.839 18.5305 122.122 18.3888 122.363 18.2047C122.618 18.0206 122.788 17.7869 122.873 17.5036H125.465C125.281 18.3109 124.941 18.9695 124.445 19.4794C123.949 19.9893 123.354 20.3646 122.661 20.6054C121.981 20.8461 121.258 20.9665 120.494 20.9665ZM117.689 14.1257H123.085C123.085 13.6583 122.979 13.2334 122.767 12.851C122.554 12.4686 122.25 12.1712 121.853 11.9588C121.471 11.7322 121.003 11.6189 120.451 11.6189C119.856 11.6189 119.361 11.7392 118.964 11.98C118.567 12.2208 118.263 12.5324 118.05 12.9148C117.838 13.2972 117.718 13.7008 117.689 14.1257Z" fill="#FFE681"/>
</svg>
